<?xml version="1.0" encoding="utf-8" standalone="no"?>
<!DOCTYPE svg PUBLIC "-//W3C//DTD SVG 1.1//EN"
  "http://www.w3.org/Graphics/SVG/1.1/DTD/svg11.dtd">
<svg xmlns:xlink="http://www.w3.org/1999/xlink" width="1080pt" height="576pt" viewBox="0 0 1080 576" xmlns="http://www.w3.org/2000/svg" version="1.1">
 <metadata>
  <rdf:RDF xmlns:dc="http://purl.org/dc/elements/1.1/" xmlns:cc="http://creativecommons.org/ns#" xmlns:rdf="http://www.w3.org/1999/02/22-rdf-syntax-ns#">
   <cc:Work>
    <dc:type rdf:resource="http://purl.org/dc/dcmitype/StillImage"/>
    <dc:date>2024-02-23T15:38:10.936774</dc:date>
    <dc:format>image/svg+xml</dc:format>
    <dc:creator>
     <cc:Agent>
      <dc:title>Matplotlib v3.7.1, https://matplotlib.org/</dc:title>
     </cc:Agent>
    </dc:creator>
   </cc:Work>
  </rdf:RDF>
 </metadata>
 <defs>
  <style type="text/css">*{stroke-linejoin: round; stroke-linecap: butt}</style>
 </defs>
 <g id="figure_1">
  <g id="patch_1">
   <path d="M 0 576 
L 1080 576 
L 1080 0 
L 0 0 
z
" style="fill: #ffffff"/>
  </g>
  <g id="axes_1">
   <g id="patch_2">
    <path d="M 89.67 509.1 
L 1060.56 509.1 
L 1060.56 19.44 
L 89.67 19.44 
z
" style="fill: #ffffff"/>
   </g>
   <g id="matplotlib.axis_1">
    <g id="xtick_1">
     <g id="line2d_1">
      <path d="M 89.67 509.1 
L 89.67 19.44 
" clip-path="url(#p4abded95f3)" style="fill: none; stroke: #cccccc; stroke-width: 1.5; stroke-linecap: round"/>
     </g>
     <g id="text_1">
      <!-- 0 -->
      <g style="fill: #262626" transform="translate(85.082227 533.410391) scale(0.165 -0.165)">
       <defs>
        <path id="ArialMT-30" d="M 266 2259 
Q 266 3072 433 3567 
Q 600 4063 929 4331 
Q 1259 4600 1759 4600 
Q 2128 4600 2406 4451 
Q 2684 4303 2865 4023 
Q 3047 3744 3150 3342 
Q 3253 2941 3253 2259 
Q 3253 1453 3087 958 
Q 2922 463 2592 192 
Q 2263 -78 1759 -78 
Q 1097 -78 719 397 
Q 266 969 266 2259 
z
M 844 2259 
Q 844 1131 1108 757 
Q 1372 384 1759 384 
Q 2147 384 2411 759 
Q 2675 1134 2675 2259 
Q 2675 3391 2411 3762 
Q 2147 4134 1753 4134 
Q 1366 4134 1134 3806 
Q 844 3388 844 2259 
z
" transform="scale(0.015625)"/>
       </defs>
       <use xlink:href="#ArialMT-30"/>
      </g>
     </g>
    </g>
    <g id="xtick_2">
     <g id="line2d_2">
      <path d="M 241.371562 509.1 
L 241.371562 19.44 
" clip-path="url(#p4abded95f3)" style="fill: none; stroke: #cccccc; stroke-width: 1.5; stroke-linecap: round"/>
     </g>
     <g id="text_2">
      <!-- 10 -->
      <g style="fill: #262626" transform="translate(232.196016 533.410391) scale(0.165 -0.165)">
       <defs>
        <path id="ArialMT-31" d="M 2384 0 
L 1822 0 
L 1822 3584 
Q 1619 3391 1289 3197 
Q 959 3003 697 2906 
L 697 3450 
Q 1169 3672 1522 3987 
Q 1875 4303 2022 4600 
L 2384 4600 
L 2384 0 
z
" transform="scale(0.015625)"/>
       </defs>
       <use xlink:href="#ArialMT-31"/>
       <use xlink:href="#ArialMT-30" x="55.615234"/>
      </g>
     </g>
    </g>
    <g id="xtick_3">
     <g id="line2d_3">
      <path d="M 393.073125 509.1 
L 393.073125 19.44 
" clip-path="url(#p4abded95f3)" style="fill: none; stroke: #cccccc; stroke-width: 1.5; stroke-linecap: round"/>
     </g>
     <g id="text_3">
      <!-- 20 -->
      <g style="fill: #262626" transform="translate(383.897578 533.410391) scale(0.165 -0.165)">
       <defs>
        <path id="ArialMT-32" d="M 3222 541 
L 3222 0 
L 194 0 
Q 188 203 259 391 
Q 375 700 629 1000 
Q 884 1300 1366 1694 
Q 2113 2306 2375 2664 
Q 2638 3022 2638 3341 
Q 2638 3675 2398 3904 
Q 2159 4134 1775 4134 
Q 1369 4134 1125 3890 
Q 881 3647 878 3216 
L 300 3275 
Q 359 3922 746 4261 
Q 1134 4600 1788 4600 
Q 2447 4600 2831 4234 
Q 3216 3869 3216 3328 
Q 3216 3053 3103 2787 
Q 2991 2522 2730 2228 
Q 2469 1934 1863 1422 
Q 1356 997 1212 845 
Q 1069 694 975 541 
L 3222 541 
z
" transform="scale(0.015625)"/>
       </defs>
       <use xlink:href="#ArialMT-32"/>
       <use xlink:href="#ArialMT-30" x="55.615234"/>
      </g>
     </g>
    </g>
    <g id="xtick_4">
     <g id="line2d_4">
      <path d="M 544.774688 509.1 
L 544.774688 19.44 
" clip-path="url(#p4abded95f3)" style="fill: none; stroke: #cccccc; stroke-width: 1.5; stroke-linecap: round"/>
     </g>
     <g id="text_4">
      <!-- 30 -->
      <g style="fill: #262626" transform="translate(535.599141 533.410391) scale(0.165 -0.165)">
       <defs>
        <path id="ArialMT-33" d="M 269 1209 
L 831 1284 
Q 928 806 1161 595 
Q 1394 384 1728 384 
Q 2125 384 2398 659 
Q 2672 934 2672 1341 
Q 2672 1728 2419 1979 
Q 2166 2231 1775 2231 
Q 1616 2231 1378 2169 
L 1441 2663 
Q 1497 2656 1531 2656 
Q 1891 2656 2178 2843 
Q 2466 3031 2466 3422 
Q 2466 3731 2256 3934 
Q 2047 4138 1716 4138 
Q 1388 4138 1169 3931 
Q 950 3725 888 3313 
L 325 3413 
Q 428 3978 793 4289 
Q 1159 4600 1703 4600 
Q 2078 4600 2393 4439 
Q 2709 4278 2876 4000 
Q 3044 3722 3044 3409 
Q 3044 3113 2884 2869 
Q 2725 2625 2413 2481 
Q 2819 2388 3044 2092 
Q 3269 1797 3269 1353 
Q 3269 753 2831 336 
Q 2394 -81 1725 -81 
Q 1122 -81 723 278 
Q 325 638 269 1209 
z
" transform="scale(0.015625)"/>
       </defs>
       <use xlink:href="#ArialMT-33"/>
       <use xlink:href="#ArialMT-30" x="55.615234"/>
      </g>
     </g>
    </g>
    <g id="xtick_5">
     <g id="line2d_5">
      <path d="M 696.47625 509.1 
L 696.47625 19.44 
" clip-path="url(#p4abded95f3)" style="fill: none; stroke: #cccccc; stroke-width: 1.5; stroke-linecap: round"/>
     </g>
     <g id="text_5">
      <!-- 40 -->
      <g style="fill: #262626" transform="translate(687.300703 533.410391) scale(0.165 -0.165)">
       <defs>
        <path id="ArialMT-34" d="M 2069 0 
L 2069 1097 
L 81 1097 
L 81 1613 
L 2172 4581 
L 2631 4581 
L 2631 1613 
L 3250 1613 
L 3250 1097 
L 2631 1097 
L 2631 0 
L 2069 0 
z
M 2069 1613 
L 2069 3678 
L 634 1613 
L 2069 1613 
z
" transform="scale(0.015625)"/>
       </defs>
       <use xlink:href="#ArialMT-34"/>
       <use xlink:href="#ArialMT-30" x="55.615234"/>
      </g>
     </g>
    </g>
    <g id="xtick_6">
     <g id="line2d_6">
      <path d="M 848.177812 509.1 
L 848.177812 19.44 
" clip-path="url(#p4abded95f3)" style="fill: none; stroke: #cccccc; stroke-width: 1.5; stroke-linecap: round"/>
     </g>
     <g id="text_6">
      <!-- 50 -->
      <g style="fill: #262626" transform="translate(839.002266 533.410391) scale(0.165 -0.165)">
       <defs>
        <path id="ArialMT-35" d="M 266 1200 
L 856 1250 
Q 922 819 1161 601 
Q 1400 384 1738 384 
Q 2144 384 2425 690 
Q 2706 997 2706 1503 
Q 2706 1984 2436 2262 
Q 2166 2541 1728 2541 
Q 1456 2541 1237 2417 
Q 1019 2294 894 2097 
L 366 2166 
L 809 4519 
L 3088 4519 
L 3088 3981 
L 1259 3981 
L 1013 2750 
Q 1425 3038 1878 3038 
Q 2478 3038 2890 2622 
Q 3303 2206 3303 1553 
Q 3303 931 2941 478 
Q 2500 -78 1738 -78 
Q 1113 -78 717 272 
Q 322 622 266 1200 
z
" transform="scale(0.015625)"/>
       </defs>
       <use xlink:href="#ArialMT-35"/>
       <use xlink:href="#ArialMT-30" x="55.615234"/>
      </g>
     </g>
    </g>
    <g id="xtick_7">
     <g id="line2d_7">
      <path d="M 999.879375 509.1 
L 999.879375 19.44 
" clip-path="url(#p4abded95f3)" style="fill: none; stroke: #cccccc; stroke-width: 1.5; stroke-linecap: round"/>
     </g>
     <g id="text_7">
      <!-- 60 -->
      <g style="fill: #262626" transform="translate(990.703828 533.410391) scale(0.165 -0.165)">
       <defs>
        <path id="ArialMT-36" d="M 3184 3459 
L 2625 3416 
Q 2550 3747 2413 3897 
Q 2184 4138 1850 4138 
Q 1581 4138 1378 3988 
Q 1113 3794 959 3422 
Q 806 3050 800 2363 
Q 1003 2672 1297 2822 
Q 1591 2972 1913 2972 
Q 2475 2972 2870 2558 
Q 3266 2144 3266 1488 
Q 3266 1056 3080 686 
Q 2894 316 2569 119 
Q 2244 -78 1831 -78 
Q 1128 -78 684 439 
Q 241 956 241 2144 
Q 241 3472 731 4075 
Q 1159 4600 1884 4600 
Q 2425 4600 2770 4297 
Q 3116 3994 3184 3459 
z
M 888 1484 
Q 888 1194 1011 928 
Q 1134 663 1356 523 
Q 1578 384 1822 384 
Q 2178 384 2434 671 
Q 2691 959 2691 1453 
Q 2691 1928 2437 2201 
Q 2184 2475 1800 2475 
Q 1419 2475 1153 2201 
Q 888 1928 888 1484 
z
" transform="scale(0.015625)"/>
       </defs>
       <use xlink:href="#ArialMT-36"/>
       <use xlink:href="#ArialMT-30" x="55.615234"/>
      </g>
     </g>
    </g>
    <g id="text_8">
     <!-- FFT bin -->
     <g style="fill: #262626" transform="translate(544.271719 553.573828) scale(0.18 -0.18)">
      <defs>
       <path id="ArialMT-46" d="M 525 0 
L 525 4581 
L 3616 4581 
L 3616 4041 
L 1131 4041 
L 1131 2622 
L 3281 2622 
L 3281 2081 
L 1131 2081 
L 1131 0 
L 525 0 
z
" transform="scale(0.015625)"/>
       <path id="ArialMT-54" d="M 1659 0 
L 1659 4041 
L 150 4041 
L 150 4581 
L 3781 4581 
L 3781 4041 
L 2266 4041 
L 2266 0 
L 1659 0 
z
" transform="scale(0.015625)"/>
       <path id="ArialMT-20" transform="scale(0.015625)"/>
       <path id="ArialMT-62" d="M 941 0 
L 419 0 
L 419 4581 
L 981 4581 
L 981 2947 
Q 1338 3394 1891 3394 
Q 2197 3394 2470 3270 
Q 2744 3147 2920 2923 
Q 3097 2700 3197 2384 
Q 3297 2069 3297 1709 
Q 3297 856 2875 390 
Q 2453 -75 1863 -75 
Q 1275 -75 941 416 
L 941 0 
z
M 934 1684 
Q 934 1088 1097 822 
Q 1363 388 1816 388 
Q 2184 388 2453 708 
Q 2722 1028 2722 1663 
Q 2722 2313 2464 2622 
Q 2206 2931 1841 2931 
Q 1472 2931 1203 2611 
Q 934 2291 934 1684 
z
" transform="scale(0.015625)"/>
       <path id="ArialMT-69" d="M 425 3934 
L 425 4581 
L 988 4581 
L 988 3934 
L 425 3934 
z
M 425 0 
L 425 3319 
L 988 3319 
L 988 0 
L 425 0 
z
" transform="scale(0.015625)"/>
       <path id="ArialMT-6e" d="M 422 0 
L 422 3319 
L 928 3319 
L 928 2847 
Q 1294 3394 1984 3394 
Q 2284 3394 2536 3286 
Q 2788 3178 2913 3003 
Q 3038 2828 3088 2588 
Q 3119 2431 3119 2041 
L 3119 0 
L 2556 0 
L 2556 2019 
Q 2556 2363 2490 2533 
Q 2425 2703 2258 2804 
Q 2091 2906 1866 2906 
Q 1506 2906 1245 2678 
Q 984 2450 984 1813 
L 984 0 
L 422 0 
z
" transform="scale(0.015625)"/>
      </defs>
      <use xlink:href="#ArialMT-46"/>
      <use xlink:href="#ArialMT-46" x="61.083984"/>
      <use xlink:href="#ArialMT-54" x="122.167969"/>
      <use xlink:href="#ArialMT-20" x="181.501953"/>
      <use xlink:href="#ArialMT-62" x="209.285156"/>
      <use xlink:href="#ArialMT-69" x="264.900391"/>
      <use xlink:href="#ArialMT-6e" x="287.117188"/>
     </g>
    </g>
   </g>
   <g id="matplotlib.axis_2">
    <g id="ytick_1">
     <g id="line2d_8">
      <path d="M 89.67 509.1 
L 1060.56 509.1 
" clip-path="url(#p4abded95f3)" style="fill: none; stroke: #cccccc; stroke-width: 1.5; stroke-linecap: round"/>
     </g>
     <g id="text_9">
      <!-- −100 -->
      <g style="fill: #262626" transform="translate(40.006328 515.005195) scale(0.165 -0.165)">
       <defs>
        <path id="ArialMT-2212" d="M 3381 1997 
L 356 1997 
L 356 2522 
L 3381 2522 
L 3381 1997 
z
" transform="scale(0.015625)"/>
       </defs>
       <use xlink:href="#ArialMT-2212"/>
       <use xlink:href="#ArialMT-31" x="58.398438"/>
       <use xlink:href="#ArialMT-30" x="114.013672"/>
       <use xlink:href="#ArialMT-30" x="169.628906"/>
      </g>
     </g>
    </g>
    <g id="ytick_2">
     <g id="line2d_9">
      <path d="M 89.67 420.070909 
L 1060.56 420.070909 
" clip-path="url(#p4abded95f3)" style="fill: none; stroke: #cccccc; stroke-width: 1.5; stroke-linecap: round"/>
     </g>
     <g id="text_10">
      <!-- −80 -->
      <g style="fill: #262626" transform="translate(49.181875 425.976104) scale(0.165 -0.165)">
       <defs>
        <path id="ArialMT-38" d="M 1131 2484 
Q 781 2613 612 2850 
Q 444 3088 444 3419 
Q 444 3919 803 4259 
Q 1163 4600 1759 4600 
Q 2359 4600 2725 4251 
Q 3091 3903 3091 3403 
Q 3091 3084 2923 2848 
Q 2756 2613 2416 2484 
Q 2838 2347 3058 2040 
Q 3278 1734 3278 1309 
Q 3278 722 2862 322 
Q 2447 -78 1769 -78 
Q 1091 -78 675 323 
Q 259 725 259 1325 
Q 259 1772 486 2073 
Q 713 2375 1131 2484 
z
M 1019 3438 
Q 1019 3113 1228 2906 
Q 1438 2700 1772 2700 
Q 2097 2700 2305 2904 
Q 2513 3109 2513 3406 
Q 2513 3716 2298 3927 
Q 2084 4138 1766 4138 
Q 1444 4138 1231 3931 
Q 1019 3725 1019 3438 
z
M 838 1322 
Q 838 1081 952 856 
Q 1066 631 1291 507 
Q 1516 384 1775 384 
Q 2178 384 2440 643 
Q 2703 903 2703 1303 
Q 2703 1709 2433 1975 
Q 2163 2241 1756 2241 
Q 1359 2241 1098 1978 
Q 838 1716 838 1322 
z
" transform="scale(0.015625)"/>
       </defs>
       <use xlink:href="#ArialMT-2212"/>
       <use xlink:href="#ArialMT-38" x="58.398438"/>
       <use xlink:href="#ArialMT-30" x="114.013672"/>
      </g>
     </g>
    </g>
    <g id="ytick_3">
     <g id="line2d_10">
      <path d="M 89.67 331.041818 
L 1060.56 331.041818 
" clip-path="url(#p4abded95f3)" style="fill: none; stroke: #cccccc; stroke-width: 1.5; stroke-linecap: round"/>
     </g>
     <g id="text_11">
      <!-- −60 -->
      <g style="fill: #262626" transform="translate(49.181875 336.947013) scale(0.165 -0.165)">
       <use xlink:href="#ArialMT-2212"/>
       <use xlink:href="#ArialMT-36" x="58.398438"/>
       <use xlink:href="#ArialMT-30" x="114.013672"/>
      </g>
     </g>
    </g>
    <g id="ytick_4">
     <g id="line2d_11">
      <path d="M 89.67 242.012727 
L 1060.56 242.012727 
" clip-path="url(#p4abded95f3)" style="fill: none; stroke: #cccccc; stroke-width: 1.5; stroke-linecap: round"/>
     </g>
     <g id="text_12">
      <!-- −40 -->
      <g style="fill: #262626" transform="translate(49.181875 247.917923) scale(0.165 -0.165)">
       <use xlink:href="#ArialMT-2212"/>
       <use xlink:href="#ArialMT-34" x="58.398438"/>
       <use xlink:href="#ArialMT-30" x="114.013672"/>
      </g>
     </g>
    </g>
    <g id="ytick_5">
     <g id="line2d_12">
      <path d="M 89.67 152.983636 
L 1060.56 152.983636 
" clip-path="url(#p4abded95f3)" style="fill: none; stroke: #cccccc; stroke-width: 1.5; stroke-linecap: round"/>
     </g>
     <g id="text_13">
      <!-- −20 -->
      <g style="fill: #262626" transform="translate(49.181875 158.888832) scale(0.165 -0.165)">
       <use xlink:href="#ArialMT-2212"/>
       <use xlink:href="#ArialMT-32" x="58.398438"/>
       <use xlink:href="#ArialMT-30" x="114.013672"/>
      </g>
     </g>
    </g>
    <g id="ytick_6">
     <g id="line2d_13">
      <path d="M 89.67 63.954545 
L 1060.56 63.954545 
" clip-path="url(#p4abded95f3)" style="fill: none; stroke: #cccccc; stroke-width: 1.5; stroke-linecap: round"/>
     </g>
     <g id="text_14">
      <!-- 0 -->
      <g style="fill: #262626" transform="translate(67.994453 69.859741) scale(0.165 -0.165)">
       <use xlink:href="#ArialMT-30"/>
      </g>
     </g>
    </g>
    <g id="text_15">
     <!-- Power Spectrum [dBFS] -->
     <g style="fill: #262626" transform="translate(32.428828 360.800625) rotate(-90) scale(0.18 -0.18)">
      <defs>
       <path id="ArialMT-50" d="M 494 0 
L 494 4581 
L 2222 4581 
Q 2678 4581 2919 4538 
Q 3256 4481 3484 4323 
Q 3713 4166 3852 3881 
Q 3991 3597 3991 3256 
Q 3991 2672 3619 2267 
Q 3247 1863 2275 1863 
L 1100 1863 
L 1100 0 
L 494 0 
z
M 1100 2403 
L 2284 2403 
Q 2872 2403 3119 2622 
Q 3366 2841 3366 3238 
Q 3366 3525 3220 3729 
Q 3075 3934 2838 4000 
Q 2684 4041 2272 4041 
L 1100 4041 
L 1100 2403 
z
" transform="scale(0.015625)"/>
       <path id="ArialMT-6f" d="M 213 1659 
Q 213 2581 725 3025 
Q 1153 3394 1769 3394 
Q 2453 3394 2887 2945 
Q 3322 2497 3322 1706 
Q 3322 1066 3130 698 
Q 2938 331 2570 128 
Q 2203 -75 1769 -75 
Q 1072 -75 642 372 
Q 213 819 213 1659 
z
M 791 1659 
Q 791 1022 1069 705 
Q 1347 388 1769 388 
Q 2188 388 2466 706 
Q 2744 1025 2744 1678 
Q 2744 2294 2464 2611 
Q 2184 2928 1769 2928 
Q 1347 2928 1069 2612 
Q 791 2297 791 1659 
z
" transform="scale(0.015625)"/>
       <path id="ArialMT-77" d="M 1034 0 
L 19 3319 
L 600 3319 
L 1128 1403 
L 1325 691 
Q 1338 744 1497 1375 
L 2025 3319 
L 2603 3319 
L 3100 1394 
L 3266 759 
L 3456 1400 
L 4025 3319 
L 4572 3319 
L 3534 0 
L 2950 0 
L 2422 1988 
L 2294 2553 
L 1622 0 
L 1034 0 
z
" transform="scale(0.015625)"/>
       <path id="ArialMT-65" d="M 2694 1069 
L 3275 997 
Q 3138 488 2766 206 
Q 2394 -75 1816 -75 
Q 1088 -75 661 373 
Q 234 822 234 1631 
Q 234 2469 665 2931 
Q 1097 3394 1784 3394 
Q 2450 3394 2872 2941 
Q 3294 2488 3294 1666 
Q 3294 1616 3291 1516 
L 816 1516 
Q 847 969 1125 678 
Q 1403 388 1819 388 
Q 2128 388 2347 550 
Q 2566 713 2694 1069 
z
M 847 1978 
L 2700 1978 
Q 2663 2397 2488 2606 
Q 2219 2931 1791 2931 
Q 1403 2931 1139 2672 
Q 875 2413 847 1978 
z
" transform="scale(0.015625)"/>
       <path id="ArialMT-72" d="M 416 0 
L 416 3319 
L 922 3319 
L 922 2816 
Q 1116 3169 1280 3281 
Q 1444 3394 1641 3394 
Q 1925 3394 2219 3213 
L 2025 2691 
Q 1819 2813 1613 2813 
Q 1428 2813 1281 2702 
Q 1134 2591 1072 2394 
Q 978 2094 978 1738 
L 978 0 
L 416 0 
z
" transform="scale(0.015625)"/>
       <path id="ArialMT-53" d="M 288 1472 
L 859 1522 
Q 900 1178 1048 958 
Q 1197 738 1509 602 
Q 1822 466 2213 466 
Q 2559 466 2825 569 
Q 3091 672 3220 851 
Q 3350 1031 3350 1244 
Q 3350 1459 3225 1620 
Q 3100 1781 2813 1891 
Q 2628 1963 1997 2114 
Q 1366 2266 1113 2400 
Q 784 2572 623 2826 
Q 463 3081 463 3397 
Q 463 3744 659 4045 
Q 856 4347 1234 4503 
Q 1613 4659 2075 4659 
Q 2584 4659 2973 4495 
Q 3363 4331 3572 4012 
Q 3781 3694 3797 3291 
L 3216 3247 
Q 3169 3681 2898 3903 
Q 2628 4125 2100 4125 
Q 1550 4125 1298 3923 
Q 1047 3722 1047 3438 
Q 1047 3191 1225 3031 
Q 1400 2872 2139 2705 
Q 2878 2538 3153 2413 
Q 3553 2228 3743 1945 
Q 3934 1663 3934 1294 
Q 3934 928 3725 604 
Q 3516 281 3123 101 
Q 2731 -78 2241 -78 
Q 1619 -78 1198 103 
Q 778 284 539 648 
Q 300 1013 288 1472 
z
" transform="scale(0.015625)"/>
       <path id="ArialMT-70" d="M 422 -1272 
L 422 3319 
L 934 3319 
L 934 2888 
Q 1116 3141 1344 3267 
Q 1572 3394 1897 3394 
Q 2322 3394 2647 3175 
Q 2972 2956 3137 2557 
Q 3303 2159 3303 1684 
Q 3303 1175 3120 767 
Q 2938 359 2589 142 
Q 2241 -75 1856 -75 
Q 1575 -75 1351 44 
Q 1128 163 984 344 
L 984 -1272 
L 422 -1272 
z
M 931 1641 
Q 931 1000 1190 694 
Q 1450 388 1819 388 
Q 2194 388 2461 705 
Q 2728 1022 2728 1688 
Q 2728 2322 2467 2637 
Q 2206 2953 1844 2953 
Q 1484 2953 1207 2617 
Q 931 2281 931 1641 
z
" transform="scale(0.015625)"/>
       <path id="ArialMT-63" d="M 2588 1216 
L 3141 1144 
Q 3050 572 2676 248 
Q 2303 -75 1759 -75 
Q 1078 -75 664 370 
Q 250 816 250 1647 
Q 250 2184 428 2587 
Q 606 2991 970 3192 
Q 1334 3394 1763 3394 
Q 2303 3394 2647 3120 
Q 2991 2847 3088 2344 
L 2541 2259 
Q 2463 2594 2264 2762 
Q 2066 2931 1784 2931 
Q 1359 2931 1093 2626 
Q 828 2322 828 1663 
Q 828 994 1084 691 
Q 1341 388 1753 388 
Q 2084 388 2306 591 
Q 2528 794 2588 1216 
z
" transform="scale(0.015625)"/>
       <path id="ArialMT-74" d="M 1650 503 
L 1731 6 
Q 1494 -44 1306 -44 
Q 1000 -44 831 53 
Q 663 150 594 308 
Q 525 466 525 972 
L 525 2881 
L 113 2881 
L 113 3319 
L 525 3319 
L 525 4141 
L 1084 4478 
L 1084 3319 
L 1650 3319 
L 1650 2881 
L 1084 2881 
L 1084 941 
Q 1084 700 1114 631 
Q 1144 563 1211 522 
Q 1278 481 1403 481 
Q 1497 481 1650 503 
z
" transform="scale(0.015625)"/>
       <path id="ArialMT-75" d="M 2597 0 
L 2597 488 
Q 2209 -75 1544 -75 
Q 1250 -75 995 37 
Q 741 150 617 320 
Q 494 491 444 738 
Q 409 903 409 1263 
L 409 3319 
L 972 3319 
L 972 1478 
Q 972 1038 1006 884 
Q 1059 663 1231 536 
Q 1403 409 1656 409 
Q 1909 409 2131 539 
Q 2353 669 2445 892 
Q 2538 1116 2538 1541 
L 2538 3319 
L 3100 3319 
L 3100 0 
L 2597 0 
z
" transform="scale(0.015625)"/>
       <path id="ArialMT-6d" d="M 422 0 
L 422 3319 
L 925 3319 
L 925 2853 
Q 1081 3097 1340 3245 
Q 1600 3394 1931 3394 
Q 2300 3394 2536 3241 
Q 2772 3088 2869 2813 
Q 3263 3394 3894 3394 
Q 4388 3394 4653 3120 
Q 4919 2847 4919 2278 
L 4919 0 
L 4359 0 
L 4359 2091 
Q 4359 2428 4304 2576 
Q 4250 2725 4106 2815 
Q 3963 2906 3769 2906 
Q 3419 2906 3187 2673 
Q 2956 2441 2956 1928 
L 2956 0 
L 2394 0 
L 2394 2156 
Q 2394 2531 2256 2718 
Q 2119 2906 1806 2906 
Q 1569 2906 1367 2781 
Q 1166 2656 1075 2415 
Q 984 2175 984 1722 
L 984 0 
L 422 0 
z
" transform="scale(0.015625)"/>
       <path id="ArialMT-5b" d="M 434 -1272 
L 434 4581 
L 1675 4581 
L 1675 4116 
L 997 4116 
L 997 -806 
L 1675 -806 
L 1675 -1272 
L 434 -1272 
z
" transform="scale(0.015625)"/>
       <path id="ArialMT-64" d="M 2575 0 
L 2575 419 
Q 2259 -75 1647 -75 
Q 1250 -75 917 144 
Q 584 363 401 755 
Q 219 1147 219 1656 
Q 219 2153 384 2558 
Q 550 2963 881 3178 
Q 1213 3394 1622 3394 
Q 1922 3394 2156 3267 
Q 2391 3141 2538 2938 
L 2538 4581 
L 3097 4581 
L 3097 0 
L 2575 0 
z
M 797 1656 
Q 797 1019 1065 703 
Q 1334 388 1700 388 
Q 2069 388 2326 689 
Q 2584 991 2584 1609 
Q 2584 2291 2321 2609 
Q 2059 2928 1675 2928 
Q 1300 2928 1048 2622 
Q 797 2316 797 1656 
z
" transform="scale(0.015625)"/>
       <path id="ArialMT-42" d="M 469 0 
L 469 4581 
L 2188 4581 
Q 2713 4581 3030 4442 
Q 3347 4303 3526 4014 
Q 3706 3725 3706 3409 
Q 3706 3116 3547 2856 
Q 3388 2597 3066 2438 
Q 3481 2316 3704 2022 
Q 3928 1728 3928 1328 
Q 3928 1006 3792 729 
Q 3656 453 3456 303 
Q 3256 153 2954 76 
Q 2653 0 2216 0 
L 469 0 
z
M 1075 2656 
L 2066 2656 
Q 2469 2656 2644 2709 
Q 2875 2778 2992 2937 
Q 3109 3097 3109 3338 
Q 3109 3566 3000 3739 
Q 2891 3913 2687 3977 
Q 2484 4041 1991 4041 
L 1075 4041 
L 1075 2656 
z
M 1075 541 
L 2216 541 
Q 2509 541 2628 563 
Q 2838 600 2978 687 
Q 3119 775 3209 942 
Q 3300 1109 3300 1328 
Q 3300 1584 3169 1773 
Q 3038 1963 2805 2039 
Q 2572 2116 2134 2116 
L 1075 2116 
L 1075 541 
z
" transform="scale(0.015625)"/>
       <path id="ArialMT-5d" d="M 1363 -1272 
L 122 -1272 
L 122 -806 
L 800 -806 
L 800 4116 
L 122 4116 
L 122 4581 
L 1363 4581 
L 1363 -1272 
z
" transform="scale(0.015625)"/>
      </defs>
      <use xlink:href="#ArialMT-50"/>
      <use xlink:href="#ArialMT-6f" x="66.699219"/>
      <use xlink:href="#ArialMT-77" x="122.314453"/>
      <use xlink:href="#ArialMT-65" x="194.53125"/>
      <use xlink:href="#ArialMT-72" x="250.146484"/>
      <use xlink:href="#ArialMT-20" x="283.447266"/>
      <use xlink:href="#ArialMT-53" x="311.230469"/>
      <use xlink:href="#ArialMT-70" x="377.929688"/>
      <use xlink:href="#ArialMT-65" x="433.544922"/>
      <use xlink:href="#ArialMT-63" x="489.160156"/>
      <use xlink:href="#ArialMT-74" x="539.160156"/>
      <use xlink:href="#ArialMT-72" x="566.943359"/>
      <use xlink:href="#ArialMT-75" x="600.244141"/>
      <use xlink:href="#ArialMT-6d" x="655.859375"/>
      <use xlink:href="#ArialMT-20" x="739.160156"/>
      <use xlink:href="#ArialMT-5b" x="766.943359"/>
      <use xlink:href="#ArialMT-64" x="794.726562"/>
      <use xlink:href="#ArialMT-42" x="850.341797"/>
      <use xlink:href="#ArialMT-46" x="917.041016"/>
      <use xlink:href="#ArialMT-53" x="978.125"/>
      <use xlink:href="#ArialMT-5d" x="1044.824219"/>
     </g>
    </g>
   </g>
   <g id="line2d_14">
    <path d="M 101.972199 577 
L 104.840156 348.27256 
L 120.010313 328.948858 
L 135.180469 344.555966 
L 150.350625 329.862445 
L 165.520781 73.126462 
L 180.690938 344.787115 
L 195.861094 373.83897 
L 211.03125 325.448562 
L 226.201406 362.023589 
L 241.371562 371.869171 
L 256.541719 362.347498 
L 271.711875 334.993684 
L 286.882031 353.100013 
L 302.052188 321.404689 
L 317.222344 351.264116 
L 332.3925 331.196523 
L 347.562656 321.499391 
L 362.732812 332.736648 
L 377.902969 384.270214 
L 393.073125 418.380907 
L 408.243281 389.884486 
L 423.413437 359.463979 
L 438.583594 365.381203 
L 453.75375 394.027248 
L 468.923906 301.140217 
L 484.094062 357.982133 
L 499.264219 357.680407 
L 514.434375 331.027498 
L 529.604531 389.416692 
L 544.774688 331.524071 
L 559.944844 367.792081 
L 575.115 380.869752 
L 590.285156 363.731742 
L 605.455312 341.226057 
L 620.625469 369.810626 
L 635.795625 374.263898 
L 650.965781 381.582186 
L 666.135937 328.453265 
L 681.306094 346.479881 
L 696.47625 362.126456 
L 711.646406 336.964161 
L 726.816562 355.618204 
L 741.986719 337.926963 
L 757.156875 336.131707 
L 772.327031 319.719086 
L 787.497187 399.733119 
L 802.667344 340.988775 
L 817.8375 345.183632 
L 833.007656 400.375288 
L 848.177812 355.25429 
L 863.347969 353.867902 
L 878.518125 387.653022 
L 893.688281 354.895805 
L 908.858437 364.881364 
L 924.028594 375.43995 
L 939.19875 357.062559 
L 954.368906 357.126467 
L 969.539062 357.795694 
L 984.709219 348.049405 
L 999.879375 337.421718 
L 1015.049531 334.638384 
L 1030.219687 338.769902 
L 1045.389844 326.103247 
" clip-path="url(#p4abded95f3)" style="fill: none; stroke: #1f77b4; stroke-width: 2.25; stroke-linecap: round"/>
    <defs>
     <path id="m860448d04f" d="M 0 4.5 
C 1.193414 4.5 2.338109 4.025852 3.181981 3.181981 
C 4.025852 2.338109 4.5 1.193414 4.5 0 
C 4.5 -1.193414 4.025852 -2.338109 3.181981 -3.181981 
C 2.338109 -4.025852 1.193414 -4.5 0 -4.5 
C -1.193414 -4.5 -2.338109 -4.025852 -3.181981 -3.181981 
C -4.025852 -2.338109 -4.5 -1.193414 -4.5 0 
C -4.5 1.193414 -4.025852 2.338109 -3.181981 3.181981 
C -2.338109 4.025852 -1.193414 4.5 0 4.5 
z
" style="stroke: #1f77b4"/>
    </defs>
    <g clip-path="url(#p4abded95f3)">
     <use xlink:href="#m860448d04f" x="89.67" y="1558.133886" style="fill: #1f77b4; stroke: #1f77b4"/>
     <use xlink:href="#m860448d04f" x="104.840156" y="348.27256" style="fill: #1f77b4; stroke: #1f77b4"/>
     <use xlink:href="#m860448d04f" x="120.010313" y="328.948858" style="fill: #1f77b4; stroke: #1f77b4"/>
     <use xlink:href="#m860448d04f" x="135.180469" y="344.555966" style="fill: #1f77b4; stroke: #1f77b4"/>
     <use xlink:href="#m860448d04f" x="150.350625" y="329.862445" style="fill: #1f77b4; stroke: #1f77b4"/>
     <use xlink:href="#m860448d04f" x="165.520781" y="73.126462" style="fill: #1f77b4; stroke: #1f77b4"/>
     <use xlink:href="#m860448d04f" x="180.690938" y="344.787115" style="fill: #1f77b4; stroke: #1f77b4"/>
     <use xlink:href="#m860448d04f" x="195.861094" y="373.83897" style="fill: #1f77b4; stroke: #1f77b4"/>
     <use xlink:href="#m860448d04f" x="211.03125" y="325.448562" style="fill: #1f77b4; stroke: #1f77b4"/>
     <use xlink:href="#m860448d04f" x="226.201406" y="362.023589" style="fill: #1f77b4; stroke: #1f77b4"/>
     <use xlink:href="#m860448d04f" x="241.371562" y="371.869171" style="fill: #1f77b4; stroke: #1f77b4"/>
     <use xlink:href="#m860448d04f" x="256.541719" y="362.347498" style="fill: #1f77b4; stroke: #1f77b4"/>
     <use xlink:href="#m860448d04f" x="271.711875" y="334.993684" style="fill: #1f77b4; stroke: #1f77b4"/>
     <use xlink:href="#m860448d04f" x="286.882031" y="353.100013" style="fill: #1f77b4; stroke: #1f77b4"/>
     <use xlink:href="#m860448d04f" x="302.052188" y="321.404689" style="fill: #1f77b4; stroke: #1f77b4"/>
     <use xlink:href="#m860448d04f" x="317.222344" y="351.264116" style="fill: #1f77b4; stroke: #1f77b4"/>
     <use xlink:href="#m860448d04f" x="332.3925" y="331.196523" style="fill: #1f77b4; stroke: #1f77b4"/>
     <use xlink:href="#m860448d04f" x="347.562656" y="321.499391" style="fill: #1f77b4; stroke: #1f77b4"/>
     <use xlink:href="#m860448d04f" x="362.732812" y="332.736648" style="fill: #1f77b4; stroke: #1f77b4"/>
     <use xlink:href="#m860448d04f" x="377.902969" y="384.270214" style="fill: #1f77b4; stroke: #1f77b4"/>
     <use xlink:href="#m860448d04f" x="393.073125" y="418.380907" style="fill: #1f77b4; stroke: #1f77b4"/>
     <use xlink:href="#m860448d04f" x="408.243281" y="389.884486" style="fill: #1f77b4; stroke: #1f77b4"/>
     <use xlink:href="#m860448d04f" x="423.413437" y="359.463979" style="fill: #1f77b4; stroke: #1f77b4"/>
     <use xlink:href="#m860448d04f" x="438.583594" y="365.381203" style="fill: #1f77b4; stroke: #1f77b4"/>
     <use xlink:href="#m860448d04f" x="453.75375" y="394.027248" style="fill: #1f77b4; stroke: #1f77b4"/>
     <use xlink:href="#m860448d04f" x="468.923906" y="301.140217" style="fill: #1f77b4; stroke: #1f77b4"/>
     <use xlink:href="#m860448d04f" x="484.094062" y="357.982133" style="fill: #1f77b4; stroke: #1f77b4"/>
     <use xlink:href="#m860448d04f" x="499.264219" y="357.680407" style="fill: #1f77b4; stroke: #1f77b4"/>
     <use xlink:href="#m860448d04f" x="514.434375" y="331.027498" style="fill: #1f77b4; stroke: #1f77b4"/>
     <use xlink:href="#m860448d04f" x="529.604531" y="389.416692" style="fill: #1f77b4; stroke: #1f77b4"/>
     <use xlink:href="#m860448d04f" x="544.774688" y="331.524071" style="fill: #1f77b4; stroke: #1f77b4"/>
     <use xlink:href="#m860448d04f" x="559.944844" y="367.792081" style="fill: #1f77b4; stroke: #1f77b4"/>
     <use xlink:href="#m860448d04f" x="575.115" y="380.869752" style="fill: #1f77b4; stroke: #1f77b4"/>
     <use xlink:href="#m860448d04f" x="590.285156" y="363.731742" style="fill: #1f77b4; stroke: #1f77b4"/>
     <use xlink:href="#m860448d04f" x="605.455312" y="341.226057" style="fill: #1f77b4; stroke: #1f77b4"/>
     <use xlink:href="#m860448d04f" x="620.625469" y="369.810626" style="fill: #1f77b4; stroke: #1f77b4"/>
     <use xlink:href="#m860448d04f" x="635.795625" y="374.263898" style="fill: #1f77b4; stroke: #1f77b4"/>
     <use xlink:href="#m860448d04f" x="650.965781" y="381.582186" style="fill: #1f77b4; stroke: #1f77b4"/>
     <use xlink:href="#m860448d04f" x="666.135937" y="328.453265" style="fill: #1f77b4; stroke: #1f77b4"/>
     <use xlink:href="#m860448d04f" x="681.306094" y="346.479881" style="fill: #1f77b4; stroke: #1f77b4"/>
     <use xlink:href="#m860448d04f" x="696.47625" y="362.126456" style="fill: #1f77b4; stroke: #1f77b4"/>
     <use xlink:href="#m860448d04f" x="711.646406" y="336.964161" style="fill: #1f77b4; stroke: #1f77b4"/>
     <use xlink:href="#m860448d04f" x="726.816562" y="355.618204" style="fill: #1f77b4; stroke: #1f77b4"/>
     <use xlink:href="#m860448d04f" x="741.986719" y="337.926963" style="fill: #1f77b4; stroke: #1f77b4"/>
     <use xlink:href="#m860448d04f" x="757.156875" y="336.131707" style="fill: #1f77b4; stroke: #1f77b4"/>
     <use xlink:href="#m860448d04f" x="772.327031" y="319.719086" style="fill: #1f77b4; stroke: #1f77b4"/>
     <use xlink:href="#m860448d04f" x="787.497187" y="399.733119" style="fill: #1f77b4; stroke: #1f77b4"/>
     <use xlink:href="#m860448d04f" x="802.667344" y="340.988775" style="fill: #1f77b4; stroke: #1f77b4"/>
     <use xlink:href="#m860448d04f" x="817.8375" y="345.183632" style="fill: #1f77b4; stroke: #1f77b4"/>
     <use xlink:href="#m860448d04f" x="833.007656" y="400.375288" style="fill: #1f77b4; stroke: #1f77b4"/>
     <use xlink:href="#m860448d04f" x="848.177812" y="355.25429" style="fill: #1f77b4; stroke: #1f77b4"/>
     <use xlink:href="#m860448d04f" x="863.347969" y="353.867902" style="fill: #1f77b4; stroke: #1f77b4"/>
     <use xlink:href="#m860448d04f" x="878.518125" y="387.653022" style="fill: #1f77b4; stroke: #1f77b4"/>
     <use xlink:href="#m860448d04f" x="893.688281" y="354.895805" style="fill: #1f77b4; stroke: #1f77b4"/>
     <use xlink:href="#m860448d04f" x="908.858437" y="364.881364" style="fill: #1f77b4; stroke: #1f77b4"/>
     <use xlink:href="#m860448d04f" x="924.028594" y="375.43995" style="fill: #1f77b4; stroke: #1f77b4"/>
     <use xlink:href="#m860448d04f" x="939.19875" y="357.062559" style="fill: #1f77b4; stroke: #1f77b4"/>
     <use xlink:href="#m860448d04f" x="954.368906" y="357.126467" style="fill: #1f77b4; stroke: #1f77b4"/>
     <use xlink:href="#m860448d04f" x="969.539062" y="357.795694" style="fill: #1f77b4; stroke: #1f77b4"/>
     <use xlink:href="#m860448d04f" x="984.709219" y="348.049405" style="fill: #1f77b4; stroke: #1f77b4"/>
     <use xlink:href="#m860448d04f" x="999.879375" y="337.421718" style="fill: #1f77b4; stroke: #1f77b4"/>
     <use xlink:href="#m860448d04f" x="1015.049531" y="334.638384" style="fill: #1f77b4; stroke: #1f77b4"/>
     <use xlink:href="#m860448d04f" x="1030.219687" y="338.769902" style="fill: #1f77b4; stroke: #1f77b4"/>
     <use xlink:href="#m860448d04f" x="1045.389844" y="326.103247" style="fill: #1f77b4; stroke: #1f77b4"/>
    </g>
   </g>
   <g id="patch_3">
    <path d="M 89.67 509.1 
L 89.67 19.44 
" style="fill: none; stroke: #cccccc; stroke-width: 1.875; stroke-linejoin: miter; stroke-linecap: square"/>
   </g>
   <g id="patch_4">
    <path d="M 1060.56 509.1 
L 1060.56 19.44 
" style="fill: none; stroke: #cccccc; stroke-width: 1.875; stroke-linejoin: miter; stroke-linecap: square"/>
   </g>
   <g id="patch_5">
    <path d="M 89.67 509.1 
L 1060.56 509.1 
" style="fill: none; stroke: #cccccc; stroke-width: 1.875; stroke-linejoin: miter; stroke-linecap: square"/>
   </g>
   <g id="patch_6">
    <path d="M 89.67 19.44 
L 1060.56 19.44 
" style="fill: none; stroke: #cccccc; stroke-width: 1.875; stroke-linejoin: miter; stroke-linecap: square"/>
   </g>
   <g id="legend_1">
    <g id="patch_7">
     <path d="M 282.703594 56.384531 
L 1049.01 56.384531 
Q 1052.31 56.384531 1052.31 53.084531 
L 1052.31 30.99 
Q 1052.31 27.69 1049.01 27.69 
L 282.703594 27.69 
Q 279.403594 27.69 279.403594 30.99 
L 279.403594 53.084531 
Q 279.403594 56.384531 282.703594 56.384531 
z
" style="fill: #ffffff; opacity: 0.8; stroke: #cccccc; stroke-width: 1.5; stroke-linejoin: miter"/>
    </g>
    <g id="line2d_15">
     <path d="M 286.003594 40.536797 
L 302.503594 40.536797 
L 319.003594 40.536797 
" style="fill: none; stroke: #1f77b4; stroke-width: 2.25; stroke-linecap: round"/>
     <g>
      <use xlink:href="#m860448d04f" x="302.503594" y="40.536797" style="fill: #1f77b4; stroke: #1f77b4"/>
     </g>
    </g>
    <g id="text_16">
     <!-- output_tran/tran_LayGtKttTtVt v(ro):A[dB]=-2.06 SNDR[dB]=42.79 SFDR[dBc]=51.22 ENOB=6.82 -->
     <g style="fill: #262626" transform="translate(332.203594 46.311797) scale(0.165 -0.165)">
      <defs>
       <path id="ArialMT-5f" d="M -97 -1272 
L -97 -866 
L 3631 -866 
L 3631 -1272 
L -97 -1272 
z
" transform="scale(0.015625)"/>
       <path id="ArialMT-61" d="M 2588 409 
Q 2275 144 1986 34 
Q 1697 -75 1366 -75 
Q 819 -75 525 192 
Q 231 459 231 875 
Q 231 1119 342 1320 
Q 453 1522 633 1644 
Q 813 1766 1038 1828 
Q 1203 1872 1538 1913 
Q 2219 1994 2541 2106 
Q 2544 2222 2544 2253 
Q 2544 2597 2384 2738 
Q 2169 2928 1744 2928 
Q 1347 2928 1158 2789 
Q 969 2650 878 2297 
L 328 2372 
Q 403 2725 575 2942 
Q 747 3159 1072 3276 
Q 1397 3394 1825 3394 
Q 2250 3394 2515 3294 
Q 2781 3194 2906 3042 
Q 3031 2891 3081 2659 
Q 3109 2516 3109 2141 
L 3109 1391 
Q 3109 606 3145 398 
Q 3181 191 3288 0 
L 2700 0 
Q 2613 175 2588 409 
z
M 2541 1666 
Q 2234 1541 1622 1453 
Q 1275 1403 1131 1340 
Q 988 1278 909 1158 
Q 831 1038 831 891 
Q 831 666 1001 516 
Q 1172 366 1500 366 
Q 1825 366 2078 508 
Q 2331 650 2450 897 
Q 2541 1088 2541 1459 
L 2541 1666 
z
" transform="scale(0.015625)"/>
       <path id="ArialMT-2f" d="M 0 -78 
L 1328 4659 
L 1778 4659 
L 453 -78 
L 0 -78 
z
" transform="scale(0.015625)"/>
       <path id="ArialMT-4c" d="M 469 0 
L 469 4581 
L 1075 4581 
L 1075 541 
L 3331 541 
L 3331 0 
L 469 0 
z
" transform="scale(0.015625)"/>
       <path id="ArialMT-79" d="M 397 -1278 
L 334 -750 
Q 519 -800 656 -800 
Q 844 -800 956 -737 
Q 1069 -675 1141 -563 
Q 1194 -478 1313 -144 
Q 1328 -97 1363 -6 
L 103 3319 
L 709 3319 
L 1400 1397 
Q 1534 1031 1641 628 
Q 1738 1016 1872 1384 
L 2581 3319 
L 3144 3319 
L 1881 -56 
Q 1678 -603 1566 -809 
Q 1416 -1088 1222 -1217 
Q 1028 -1347 759 -1347 
Q 597 -1347 397 -1278 
z
" transform="scale(0.015625)"/>
       <path id="ArialMT-47" d="M 2638 1797 
L 2638 2334 
L 4578 2338 
L 4578 638 
Q 4131 281 3656 101 
Q 3181 -78 2681 -78 
Q 2006 -78 1454 211 
Q 903 500 622 1047 
Q 341 1594 341 2269 
Q 341 2938 620 3517 
Q 900 4097 1425 4378 
Q 1950 4659 2634 4659 
Q 3131 4659 3532 4498 
Q 3934 4338 4162 4050 
Q 4391 3763 4509 3300 
L 3963 3150 
Q 3859 3500 3706 3700 
Q 3553 3900 3268 4020 
Q 2984 4141 2638 4141 
Q 2222 4141 1919 4014 
Q 1616 3888 1430 3681 
Q 1244 3475 1141 3228 
Q 966 2803 966 2306 
Q 966 1694 1177 1281 
Q 1388 869 1791 669 
Q 2194 469 2647 469 
Q 3041 469 3416 620 
Q 3791 772 3984 944 
L 3984 1797 
L 2638 1797 
z
" transform="scale(0.015625)"/>
       <path id="ArialMT-4b" d="M 469 0 
L 469 4581 
L 1075 4581 
L 1075 2309 
L 3350 4581 
L 4172 4581 
L 2250 2725 
L 4256 0 
L 3456 0 
L 1825 2319 
L 1075 1588 
L 1075 0 
L 469 0 
z
" transform="scale(0.015625)"/>
       <path id="ArialMT-56" d="M 1803 0 
L 28 4581 
L 684 4581 
L 1875 1253 
Q 2019 853 2116 503 
Q 2222 878 2363 1253 
L 3600 4581 
L 4219 4581 
L 2425 0 
L 1803 0 
z
" transform="scale(0.015625)"/>
       <path id="ArialMT-76" d="M 1344 0 
L 81 3319 
L 675 3319 
L 1388 1331 
Q 1503 1009 1600 663 
Q 1675 925 1809 1294 
L 2547 3319 
L 3125 3319 
L 1869 0 
L 1344 0 
z
" transform="scale(0.015625)"/>
       <path id="ArialMT-28" d="M 1497 -1347 
Q 1031 -759 709 28 
Q 388 816 388 1659 
Q 388 2403 628 3084 
Q 909 3875 1497 4659 
L 1900 4659 
Q 1522 4009 1400 3731 
Q 1209 3300 1100 2831 
Q 966 2247 966 1656 
Q 966 153 1900 -1347 
L 1497 -1347 
z
" transform="scale(0.015625)"/>
       <path id="ArialMT-29" d="M 791 -1347 
L 388 -1347 
Q 1322 153 1322 1656 
Q 1322 2244 1188 2822 
Q 1081 3291 891 3722 
Q 769 4003 388 4659 
L 791 4659 
Q 1378 3875 1659 3084 
Q 1900 2403 1900 1659 
Q 1900 816 1576 28 
Q 1253 -759 791 -1347 
z
" transform="scale(0.015625)"/>
       <path id="ArialMT-3a" d="M 578 2678 
L 578 3319 
L 1219 3319 
L 1219 2678 
L 578 2678 
z
M 578 0 
L 578 641 
L 1219 641 
L 1219 0 
L 578 0 
z
" transform="scale(0.015625)"/>
       <path id="ArialMT-41" d="M -9 0 
L 1750 4581 
L 2403 4581 
L 4278 0 
L 3588 0 
L 3053 1388 
L 1138 1388 
L 634 0 
L -9 0 
z
M 1313 1881 
L 2866 1881 
L 2388 3150 
Q 2169 3728 2063 4100 
Q 1975 3659 1816 3225 
L 1313 1881 
z
" transform="scale(0.015625)"/>
       <path id="ArialMT-3d" d="M 3381 2694 
L 356 2694 
L 356 3219 
L 3381 3219 
L 3381 2694 
z
M 3381 1303 
L 356 1303 
L 356 1828 
L 3381 1828 
L 3381 1303 
z
" transform="scale(0.015625)"/>
       <path id="ArialMT-2d" d="M 203 1375 
L 203 1941 
L 1931 1941 
L 1931 1375 
L 203 1375 
z
" transform="scale(0.015625)"/>
       <path id="ArialMT-2e" d="M 581 0 
L 581 641 
L 1222 641 
L 1222 0 
L 581 0 
z
" transform="scale(0.015625)"/>
       <path id="ArialMT-4e" d="M 488 0 
L 488 4581 
L 1109 4581 
L 3516 984 
L 3516 4581 
L 4097 4581 
L 4097 0 
L 3475 0 
L 1069 3600 
L 1069 0 
L 488 0 
z
" transform="scale(0.015625)"/>
       <path id="ArialMT-44" d="M 494 0 
L 494 4581 
L 2072 4581 
Q 2606 4581 2888 4516 
Q 3281 4425 3559 4188 
Q 3922 3881 4101 3404 
Q 4281 2928 4281 2316 
Q 4281 1794 4159 1391 
Q 4038 988 3847 723 
Q 3656 459 3429 307 
Q 3203 156 2883 78 
Q 2563 0 2147 0 
L 494 0 
z
M 1100 541 
L 2078 541 
Q 2531 541 2789 625 
Q 3047 709 3200 863 
Q 3416 1078 3536 1442 
Q 3656 1806 3656 2325 
Q 3656 3044 3420 3430 
Q 3184 3816 2847 3947 
Q 2603 4041 2063 4041 
L 1100 4041 
L 1100 541 
z
" transform="scale(0.015625)"/>
       <path id="ArialMT-52" d="M 503 0 
L 503 4581 
L 2534 4581 
Q 3147 4581 3465 4457 
Q 3784 4334 3975 4021 
Q 4166 3709 4166 3331 
Q 4166 2844 3850 2509 
Q 3534 2175 2875 2084 
Q 3116 1969 3241 1856 
Q 3506 1613 3744 1247 
L 4541 0 
L 3778 0 
L 3172 953 
Q 2906 1366 2734 1584 
Q 2563 1803 2427 1890 
Q 2291 1978 2150 2013 
Q 2047 2034 1813 2034 
L 1109 2034 
L 1109 0 
L 503 0 
z
M 1109 2559 
L 2413 2559 
Q 2828 2559 3062 2645 
Q 3297 2731 3419 2920 
Q 3541 3109 3541 3331 
Q 3541 3656 3305 3865 
Q 3069 4075 2559 4075 
L 1109 4075 
L 1109 2559 
z
" transform="scale(0.015625)"/>
       <path id="ArialMT-37" d="M 303 3981 
L 303 4522 
L 3269 4522 
L 3269 4084 
Q 2831 3619 2401 2847 
Q 1972 2075 1738 1259 
Q 1569 684 1522 0 
L 944 0 
Q 953 541 1156 1306 
Q 1359 2072 1739 2783 
Q 2119 3494 2547 3981 
L 303 3981 
z
" transform="scale(0.015625)"/>
       <path id="ArialMT-39" d="M 350 1059 
L 891 1109 
Q 959 728 1153 556 
Q 1347 384 1650 384 
Q 1909 384 2104 503 
Q 2300 622 2425 820 
Q 2550 1019 2634 1356 
Q 2719 1694 2719 2044 
Q 2719 2081 2716 2156 
Q 2547 1888 2255 1720 
Q 1963 1553 1622 1553 
Q 1053 1553 659 1965 
Q 266 2378 266 3053 
Q 266 3750 677 4175 
Q 1088 4600 1706 4600 
Q 2153 4600 2523 4359 
Q 2894 4119 3086 3673 
Q 3278 3228 3278 2384 
Q 3278 1506 3087 986 
Q 2897 466 2520 194 
Q 2144 -78 1638 -78 
Q 1100 -78 759 220 
Q 419 519 350 1059 
z
M 2653 3081 
Q 2653 3566 2395 3850 
Q 2138 4134 1775 4134 
Q 1400 4134 1122 3828 
Q 844 3522 844 3034 
Q 844 2597 1108 2323 
Q 1372 2050 1759 2050 
Q 2150 2050 2401 2323 
Q 2653 2597 2653 3081 
z
" transform="scale(0.015625)"/>
       <path id="ArialMT-45" d="M 506 0 
L 506 4581 
L 3819 4581 
L 3819 4041 
L 1113 4041 
L 1113 2638 
L 3647 2638 
L 3647 2100 
L 1113 2100 
L 1113 541 
L 3925 541 
L 3925 0 
L 506 0 
z
" transform="scale(0.015625)"/>
       <path id="ArialMT-4f" d="M 309 2231 
Q 309 3372 921 4017 
Q 1534 4663 2503 4663 
Q 3138 4663 3647 4359 
Q 4156 4056 4423 3514 
Q 4691 2972 4691 2284 
Q 4691 1588 4409 1038 
Q 4128 488 3612 205 
Q 3097 -78 2500 -78 
Q 1853 -78 1343 234 
Q 834 547 571 1087 
Q 309 1628 309 2231 
z
M 934 2222 
Q 934 1394 1379 917 
Q 1825 441 2497 441 
Q 3181 441 3623 922 
Q 4066 1403 4066 2288 
Q 4066 2847 3877 3264 
Q 3688 3681 3323 3911 
Q 2959 4141 2506 4141 
Q 1863 4141 1398 3698 
Q 934 3256 934 2222 
z
" transform="scale(0.015625)"/>
      </defs>
      <use xlink:href="#ArialMT-6f"/>
      <use xlink:href="#ArialMT-75" x="55.615234"/>
      <use xlink:href="#ArialMT-74" x="111.230469"/>
      <use xlink:href="#ArialMT-70" x="139.013672"/>
      <use xlink:href="#ArialMT-75" x="194.628906"/>
      <use xlink:href="#ArialMT-74" x="250.244141"/>
      <use xlink:href="#ArialMT-5f" x="278.027344"/>
      <use xlink:href="#ArialMT-74" x="333.642578"/>
      <use xlink:href="#ArialMT-72" x="361.425781"/>
      <use xlink:href="#ArialMT-61" x="394.726562"/>
      <use xlink:href="#ArialMT-6e" x="450.341797"/>
      <use xlink:href="#ArialMT-2f" x="505.957031"/>
      <use xlink:href="#ArialMT-74" x="533.740234"/>
      <use xlink:href="#ArialMT-72" x="561.523438"/>
      <use xlink:href="#ArialMT-61" x="594.824219"/>
      <use xlink:href="#ArialMT-6e" x="650.439453"/>
      <use xlink:href="#ArialMT-5f" x="706.054688"/>
      <use xlink:href="#ArialMT-4c" x="761.669922"/>
      <use xlink:href="#ArialMT-61" x="817.285156"/>
      <use xlink:href="#ArialMT-79" x="872.900391"/>
      <use xlink:href="#ArialMT-47" x="922.900391"/>
      <use xlink:href="#ArialMT-74" x="1000.683594"/>
      <use xlink:href="#ArialMT-4b" x="1028.466797"/>
      <use xlink:href="#ArialMT-74" x="1095.166016"/>
      <use xlink:href="#ArialMT-74" x="1122.949219"/>
      <use xlink:href="#ArialMT-54" x="1150.732422"/>
      <use xlink:href="#ArialMT-74" x="1211.816406"/>
      <use xlink:href="#ArialMT-56" x="1239.599609"/>
      <use xlink:href="#ArialMT-74" x="1306.298828"/>
      <use xlink:href="#ArialMT-20" x="1334.082031"/>
      <use xlink:href="#ArialMT-76" x="1361.865234"/>
      <use xlink:href="#ArialMT-28" x="1411.865234"/>
      <use xlink:href="#ArialMT-72" x="1445.166016"/>
      <use xlink:href="#ArialMT-6f" x="1478.466797"/>
      <use xlink:href="#ArialMT-29" x="1534.082031"/>
      <use xlink:href="#ArialMT-3a" x="1567.382812"/>
      <use xlink:href="#ArialMT-41" x="1595.166016"/>
      <use xlink:href="#ArialMT-5b" x="1661.865234"/>
      <use xlink:href="#ArialMT-64" x="1689.648438"/>
      <use xlink:href="#ArialMT-42" x="1745.263672"/>
      <use xlink:href="#ArialMT-5d" x="1811.962891"/>
      <use xlink:href="#ArialMT-3d" x="1839.746094"/>
      <use xlink:href="#ArialMT-2d" x="1898.144531"/>
      <use xlink:href="#ArialMT-32" x="1931.445312"/>
      <use xlink:href="#ArialMT-2e" x="1987.060547"/>
      <use xlink:href="#ArialMT-30" x="2014.84375"/>
      <use xlink:href="#ArialMT-36" x="2070.458984"/>
      <use xlink:href="#ArialMT-20" x="2126.074219"/>
      <use xlink:href="#ArialMT-53" x="2153.857422"/>
      <use xlink:href="#ArialMT-4e" x="2220.556641"/>
      <use xlink:href="#ArialMT-44" x="2292.773438"/>
      <use xlink:href="#ArialMT-52" x="2364.990234"/>
      <use xlink:href="#ArialMT-5b" x="2437.207031"/>
      <use xlink:href="#ArialMT-64" x="2464.990234"/>
      <use xlink:href="#ArialMT-42" x="2520.605469"/>
      <use xlink:href="#ArialMT-5d" x="2587.304688"/>
      <use xlink:href="#ArialMT-3d" x="2615.087891"/>
      <use xlink:href="#ArialMT-34" x="2673.486328"/>
      <use xlink:href="#ArialMT-32" x="2729.101562"/>
      <use xlink:href="#ArialMT-2e" x="2784.716797"/>
      <use xlink:href="#ArialMT-37" x="2812.5"/>
      <use xlink:href="#ArialMT-39" x="2868.115234"/>
      <use xlink:href="#ArialMT-20" x="2923.730469"/>
      <use xlink:href="#ArialMT-53" x="2951.513672"/>
      <use xlink:href="#ArialMT-46" x="3018.212891"/>
      <use xlink:href="#ArialMT-44" x="3079.296875"/>
      <use xlink:href="#ArialMT-52" x="3151.513672"/>
      <use xlink:href="#ArialMT-5b" x="3223.730469"/>
      <use xlink:href="#ArialMT-64" x="3251.513672"/>
      <use xlink:href="#ArialMT-42" x="3307.128906"/>
      <use xlink:href="#ArialMT-63" x="3373.828125"/>
      <use xlink:href="#ArialMT-5d" x="3423.828125"/>
      <use xlink:href="#ArialMT-3d" x="3451.611328"/>
      <use xlink:href="#ArialMT-35" x="3510.009766"/>
      <use xlink:href="#ArialMT-31" x="3565.625"/>
      <use xlink:href="#ArialMT-2e" x="3621.240234"/>
      <use xlink:href="#ArialMT-32" x="3649.023438"/>
      <use xlink:href="#ArialMT-32" x="3704.638672"/>
      <use xlink:href="#ArialMT-20" x="3760.253906"/>
      <use xlink:href="#ArialMT-45" x="3788.037109"/>
      <use xlink:href="#ArialMT-4e" x="3854.736328"/>
      <use xlink:href="#ArialMT-4f" x="3926.953125"/>
      <use xlink:href="#ArialMT-42" x="4004.736328"/>
      <use xlink:href="#ArialMT-3d" x="4071.435547"/>
      <use xlink:href="#ArialMT-36" x="4129.833984"/>
      <use xlink:href="#ArialMT-2e" x="4185.449219"/>
      <use xlink:href="#ArialMT-38" x="4213.232422"/>
      <use xlink:href="#ArialMT-32" x="4268.847656"/>
     </g>
    </g>
   </g>
  </g>
 </g>
 <defs>
  <clipPath id="p4abded95f3">
   <rect x="89.67" y="19.44" width="970.89" height="489.66"/>
  </clipPath>
 </defs>
</svg>
